<svg xmlns="http://www.w3.org/2000/svg" viewBox="0 0 100 100">
  <!-- Square Frame -->
  <rect x="10" y="10" width="80" height="80" rx="12" fill="black"/>
  <!-- Simplified Car Front View -->
  <path d="M25 55 C25 48 30 42 50 42 C70 42 75 48 75 55 L75 72 C75 75 72 78 68 78 L32 78 C28 78 25 75 25 72 Z" fill="white"/>
  <!-- Windshield -->
  <path d="M30 54 C30 49 34 46 50 46 C66 46 70 49 70 54 L70 58 L30 58 Z" fill="black" opacity="0.8"/>
  <!-- Headlights -->
  <circle cx="35" cy="66" r="4" fill="black"/>
  <circle cx="65" cy="66" r="4" fill="black"/>
  <!-- Grille/Bumper -->
  <rect x="42" y="70" width="16" height="3" rx="1.5" fill="black"/>
</svg>
